<svg xmlns="http://www.w3.org/2000/svg" width="201" height="73" viewBox="0 0 201 73" fill="none"><g clip-path="url(#clip0_88_938)"><path d="M42.1351 18.9592H41.6994C41.2541 18.9592 40.8959 18.5978 40.8959 18.1557V17.72C40.8959 17.2747 40.5345 16.9165 40.0924 16.9165H39.6568C39.2114 16.9165 38.8532 17.2779 38.8532 17.72V18.1557C38.8532 18.601 38.4918 18.9592 38.0497 18.9592H37.6141C37.1687 18.9592 36.8105 19.3206 36.8105 19.7627V22.2443C36.8105 22.6896 36.4491 23.0478 36.007 23.0478H35.5714C35.126 23.0478 34.7678 23.4092 34.7678 23.8513V26.3329C34.7678 26.7782 34.4064 27.1364 33.9643 27.1364H33.5287C33.0833 27.1364 32.7251 27.4979 32.7251 27.94V30.4215C32.7251 30.8669 32.3637 31.2251 31.9216 31.2251H27.3974C26.952 31.2251 26.5938 31.5865 26.5938 32.0286V32.4642C26.5938 32.9096 26.2324 33.2677 25.7903 33.2677H21.266C20.8207 33.2677 20.4625 32.9063 20.4625 32.4642V29.9827C20.4625 29.5373 20.8239 29.1791 21.266 29.1791H21.7017C22.147 29.1791 22.5052 28.8177 22.5052 28.3756V23.8513C22.5052 23.406 22.8666 23.0478 23.3087 23.0478H23.7444C24.1897 23.0478 24.5479 22.6864 24.5479 22.2443V19.7627C24.5479 19.3174 24.1865 18.9592 23.7444 18.9592H23.3087C22.8634 18.9592 22.5052 18.5978 22.5052 18.1557V17.72C22.5052 17.2747 22.1438 16.9165 21.7017 16.9165H21.266C20.8207 16.9165 20.4625 17.2779 20.4625 17.72V20.2016C20.4625 20.6469 20.1011 21.0051 19.659 21.0051H19.2233C18.778 21.0051 18.4198 21.3665 18.4198 21.8086V24.2902C18.4198 24.7355 18.0584 25.0937 17.6163 25.0937H17.1806C16.7353 25.0937 16.3771 25.4552 16.3771 25.8973V28.3788C16.3771 28.8242 16.0157 29.1824 15.5736 29.1824H15.138C14.6926 29.1824 14.3344 29.5438 14.3344 29.9859V34.5101C14.3344 34.9555 13.973 35.3137 13.5309 35.3137H11.0493C10.604 35.3137 10.2458 35.6751 10.2458 36.1172V36.5528C10.2458 36.9982 9.88439 37.3564 9.44229 37.3564H6.96072C6.51539 37.3564 6.15719 37.7178 6.15719 38.1599V38.5955C6.15719 39.0409 5.79577 39.3991 5.35367 39.3991H2.8721C2.42677 39.3991 2.06857 39.7605 2.06857 40.2026V40.6382C2.06857 41.0836 1.70715 41.4418 1.26505 41.4418H0.829404C0.384077 41.4418 0.0258789 41.8032 0.0258789 42.2453V42.6809C0.0258789 43.1263 0.387304 43.4845 0.829404 43.4845H5.35367C5.79899 43.4845 6.15719 43.123 6.15719 42.6809V42.2453C6.15719 41.8 6.51862 41.4418 6.96072 41.4418H9.44229C9.88761 41.4418 10.2458 41.8032 10.2458 42.2453V46.7695C10.2458 47.2149 9.88439 47.5731 9.44229 47.5731H9.00664C8.56131 47.5731 8.20311 47.9345 8.20311 48.3766V59.0354C8.20311 59.4807 8.56454 59.8389 9.00664 59.8389H9.63913C10.0845 59.8389 10.4427 59.4775 10.4427 59.0354V58.5998C10.4427 58.1544 10.8041 57.7962 11.2462 57.7962H11.8787C12.324 57.7962 12.6822 57.4348 12.6822 56.9927V54.5111C12.6822 54.0658 13.0436 53.7076 13.4857 53.7076H13.5277C13.973 53.7076 14.3312 53.3462 14.3312 52.9041V50.4225C14.3312 49.9772 14.6926 49.619 15.1347 49.619H15.5704C16.0157 49.619 16.3739 49.2576 16.3739 48.8155V46.3339C16.3739 45.8886 16.7353 45.5304 17.1774 45.5304H17.6131C18.0584 45.5304 18.4166 45.169 18.4166 44.7269V40.2026C18.4166 39.7573 18.778 39.3991 19.2201 39.3991H21.7017C22.147 39.3991 22.5052 39.0376 22.5052 38.5955V38.1599C22.5052 37.7146 22.8666 37.3564 23.3087 37.3564H29.8789C30.3242 37.3564 30.6824 37.7178 30.6824 38.1599V38.5955C30.6824 39.0409 30.321 39.3991 29.8789 39.3991H29.4433C28.9979 39.3991 28.6397 39.7605 28.6397 40.2026V44.7269C28.6397 45.1722 28.2783 45.5304 27.8362 45.5304H27.4006C26.9553 45.5304 26.5971 45.8918 26.5971 46.3339V52.9041C26.5971 53.3494 26.2356 53.7076 25.7935 53.7076H25.3579C24.9126 53.7076 24.5544 54.0658 24.5544 54.5111V63.1272C24.5544 63.5726 24.1929 63.9308 23.7508 63.9308H23.3152C22.8699 63.9308 22.5117 64.2922 22.5117 64.7343V65.1699C22.5117 65.6153 22.8731 65.9735 23.3152 65.9735H23.7508C24.1962 65.9735 24.5544 66.3349 24.5544 66.777V69.2586C24.5544 69.7039 24.9158 70.0621 25.3579 70.0621H25.7935C26.2389 70.0621 26.5971 69.7007 26.5971 69.2586V68.8229C26.5971 68.3776 26.9585 68.0194 27.4006 68.0194H27.8362C28.2816 68.0194 28.6397 67.658 28.6397 67.2159V66.7802C28.6397 66.3349 29.0012 65.9767 29.4433 65.9767H29.8789C30.3242 65.9767 30.6824 65.6153 30.6824 65.1732V58.603C30.6824 58.1577 31.0439 57.7995 31.486 57.7995H31.9216C32.3669 57.7995 32.7251 57.438 32.7251 56.9959V50.4257C32.7251 49.9804 33.0866 49.6222 33.5287 49.6222H33.9643C34.4096 49.6222 34.7678 49.2608 34.7678 48.8187V42.2485C34.7678 41.8032 35.1293 41.445 35.5714 41.445H36.007C36.4523 41.445 36.8105 41.0836 36.8105 40.6415V34.0713C36.8105 33.6259 37.172 33.2677 37.6141 33.2677H38.0497C38.495 33.2677 38.8532 32.9063 38.8532 32.4642V27.94C38.8532 27.4946 39.2147 27.1364 39.6568 27.1364H40.0924C40.5377 27.1364 40.8959 26.775 40.8959 26.3329V21.8086C40.8959 21.3633 41.2573 21.0051 41.6994 21.0051H42.1351C42.5804 21.0051 42.9386 20.6437 42.9386 20.2016V19.766C42.9386 19.3206 42.5772 18.9624 42.1351 18.9624" fill="#9203DD"></path><path d="M57.2536 28.35V27.9144C57.2536 27.469 56.8922 27.1108 56.4501 27.1108H56.0145C55.5691 27.1108 55.2109 27.4723 55.2109 27.9144V28.35C55.2109 28.7953 55.5724 29.1535 56.0145 29.1535H56.4501C56.8954 29.1535 57.2536 28.7953 57.2536 28.35Z" fill="#9203DD"></path><path d="M84.4476 31.1993H85.2673C85.6061 31.1993 85.8804 30.925 85.8804 30.5861V29.7665C85.8804 29.4276 86.1547 29.1533 86.4935 29.1533H87.3132C87.652 29.1533 87.9263 28.879 87.9263 28.5402V27.7205C87.9263 27.3817 88.2006 27.1074 88.5394 27.1074H89.3591C89.6979 27.1074 89.9722 26.8331 89.9722 26.4943V23.6319C89.9722 23.2931 89.6979 23.0188 89.3591 23.0188H88.5394C88.2006 23.0188 87.9263 23.2931 87.9263 23.6319V24.4516C87.9263 24.7904 87.652 25.0647 87.3132 25.0647H86.4935C86.1547 25.0647 85.8804 25.339 85.8804 25.6779V26.4975C85.8804 26.8363 85.6061 27.1106 85.2673 27.1106H84.4476C84.1088 27.1106 83.8345 27.3849 83.8345 27.7238V30.5861C83.8345 30.925 84.1088 31.1993 84.4476 31.1993Z" fill="#9203DD"></path><path d="M83.8345 26.4975V25.6778C83.8345 25.339 83.5602 25.0647 83.2214 25.0647H82.4017C82.0629 25.0647 81.7886 25.339 81.7886 25.6778V26.4975C81.7886 26.8363 82.0629 27.1106 82.4017 27.1106H83.2214C83.5602 27.1106 83.8345 26.8363 83.8345 26.4975Z" fill="#9203DD"></path><path d="M108.983 29.1568H109.802C110.141 29.1568 110.415 28.8825 110.415 28.5436V27.724C110.415 27.3851 110.141 27.1108 109.802 27.1108H108.983C108.644 27.1108 108.369 27.3851 108.369 27.724V28.5436C108.369 28.8825 108.644 29.1568 108.983 29.1568Z" fill="#9203DD"></path><path d="M111.028 27.1106H111.848C112.187 27.1106 112.461 26.8363 112.461 26.4975V25.6778C112.461 25.339 112.187 25.0647 111.848 25.0647H111.028C110.69 25.0647 110.415 25.339 110.415 25.6778V26.4975C110.415 26.8363 110.69 27.1106 111.028 27.1106Z" fill="#9203DD"></path><path d="M118.593 17.5006V18.3202C118.593 18.6591 118.318 18.9334 117.979 18.9334H117.16C116.821 18.9334 116.547 19.2077 116.547 19.5465V20.3662C116.547 20.705 116.272 20.9793 115.934 20.9793H115.114C114.775 20.9793 114.501 21.2536 114.501 21.5924V22.4121C114.501 22.7509 114.226 23.0252 113.888 23.0252H113.068C112.729 23.0252 112.455 23.2995 112.455 23.6384V24.458C112.455 24.7968 112.729 25.0711 113.068 25.0711H115.93C116.269 25.0711 116.543 24.7968 116.543 24.458V23.6384C116.543 23.2995 116.818 23.0252 117.157 23.0252H117.976C118.315 23.0252 118.589 22.7509 118.589 22.4121V21.5924C118.589 21.2536 118.864 20.9793 119.203 20.9793H122.065C122.404 20.9793 122.678 20.705 122.678 20.3662V19.5465C122.678 19.2077 122.952 18.9334 123.291 18.9334H124.111C124.45 18.9334 124.724 18.6591 124.724 18.3202V17.5006C124.724 17.1617 124.45 16.8875 124.111 16.8875H119.203C118.864 16.8875 118.589 17.1617 118.589 17.5006" fill="#9203DD"></path><path d="M188.761 35.2911H189.58C189.919 35.2911 190.193 35.0168 190.193 34.6779V29.7696C190.193 29.4308 190.468 29.1565 190.807 29.1565H191.626C191.965 29.1565 192.239 28.8822 192.239 28.5434V25.681C192.239 25.3422 191.965 25.0679 191.626 25.0679H190.807C190.468 25.0679 190.193 24.7936 190.193 24.4548V23.6351C190.193 23.2963 189.919 23.022 189.58 23.022H188.761C188.422 23.022 188.148 23.2963 188.148 23.6351V24.4548C188.148 24.7936 187.873 25.0679 187.534 25.0679H186.715C186.376 25.0679 186.102 25.3422 186.102 25.681V26.5007C186.102 26.8395 185.827 27.1138 185.488 27.1138H184.669C184.33 27.1138 184.056 27.3881 184.056 27.7269V28.5466C184.056 28.8854 183.781 29.1597 183.443 29.1597H182.623C182.284 29.1597 182.01 29.434 182.01 29.7729V30.5925C182.01 30.9314 181.735 31.2057 181.397 31.2057H180.577C180.238 31.2057 179.964 31.48 179.964 31.8188V32.6385C179.964 32.9773 179.69 33.2516 179.351 33.2516H178.531C178.192 33.2516 177.918 33.5259 177.918 33.8647V34.6844C177.918 35.0232 177.644 35.2975 177.305 35.2975H176.485C176.146 35.2975 175.872 35.5718 175.872 35.9106V36.7303C175.872 37.0691 175.598 37.3434 175.259 37.3434H172.397C172.058 37.3434 171.783 37.0691 171.783 36.7303V35.9106C171.783 35.5718 172.058 35.2975 172.397 35.2975H173.216C173.555 35.2975 173.829 35.0232 173.829 34.6844V31.822C173.829 31.4832 174.104 31.2089 174.442 31.2089H175.262C175.601 31.2089 175.875 30.9346 175.875 30.5958V29.7761C175.875 29.4373 176.15 29.163 176.488 29.163H177.308C177.647 29.163 177.921 28.8887 177.921 28.5498V27.7302C177.921 27.3913 178.195 27.117 178.534 27.117H179.354C179.693 27.117 179.967 26.8427 179.967 26.5039V25.6843C179.967 25.3454 179.693 25.0711 179.354 25.0711H178.534C178.195 25.0711 177.921 24.7968 177.921 24.458V23.6383C177.921 23.2995 177.647 23.0252 177.308 23.0252H174.446C174.107 23.0252 173.833 23.2995 173.833 23.6383V24.458C173.833 24.7968 173.558 25.0711 173.219 25.0711H172.4C172.061 25.0711 171.787 25.3454 171.787 25.6843V28.5466C171.787 28.8854 171.512 29.1597 171.173 29.1597H170.354C170.015 29.1597 169.741 29.434 169.741 29.7729V30.5925C169.741 30.9314 169.466 31.2057 169.128 31.2057H168.308C167.969 31.2057 167.695 31.48 167.695 31.8188V32.6385C167.695 32.9773 167.42 33.2516 167.082 33.2516H164.219C163.88 33.2516 163.606 33.5259 163.606 33.8647V34.6844C163.606 35.0232 163.332 35.2975 162.993 35.2975H162.173C161.835 35.2975 161.56 35.5718 161.56 35.9106V36.7303C161.56 37.0691 161.286 37.3434 160.947 37.3434H158.085C157.746 37.3434 157.472 37.0691 157.472 36.7303V33.8679C157.472 33.5291 157.746 33.2548 158.085 33.2548H158.904C159.243 33.2548 159.518 32.9805 159.518 32.6417V27.7334C159.518 27.3946 159.243 27.1203 158.904 27.1203H158.085C157.746 27.1203 157.472 26.846 157.472 26.5071V25.6875C157.472 25.3486 157.197 25.0743 156.858 25.0743H153.996C153.657 25.0743 153.383 25.3486 153.383 25.6875V26.5071C153.383 26.846 153.109 27.1203 152.77 27.1203H151.95C151.611 27.1203 151.337 27.3946 151.337 27.7334V28.5531C151.337 28.8919 151.063 29.1662 150.724 29.1662H149.904C149.565 29.1662 149.291 29.4405 149.291 29.7793V30.599C149.291 30.9378 149.017 31.2121 148.678 31.2121H147.858C147.52 31.2121 147.245 31.4864 147.245 31.8252V32.6449C147.245 32.9837 146.971 33.258 146.632 33.258H145.812C145.474 33.258 145.199 33.5323 145.199 33.8712V34.6908C145.199 35.0297 144.925 35.304 144.586 35.304H143.767C143.428 35.304 143.153 35.0297 143.153 34.6908V31.8285C143.153 31.4896 143.428 31.2153 143.767 31.2153H144.586C144.925 31.2153 145.199 30.9411 145.199 30.6022V27.7399C145.199 27.401 144.925 27.1267 144.586 27.1267H143.767C143.428 27.1267 143.153 26.8524 143.153 26.5136V25.6939C143.153 25.3551 142.879 25.0808 142.54 25.0808H141.721C141.382 25.0808 141.107 25.3551 141.107 25.6939V28.5563C141.107 28.8951 140.833 29.1694 140.494 29.1694H139.675C139.336 29.1694 139.062 29.4437 139.062 29.7826V36.7335C139.062 37.0724 138.787 37.3467 138.448 37.3467H137.629C137.29 37.3467 137.016 37.621 137.016 37.9598V42.8681C137.016 43.2069 137.29 43.4812 137.629 43.4812H142.537C142.876 43.4812 143.15 43.2069 143.15 42.8681V42.0484C143.15 41.7096 143.424 41.4353 143.763 41.4353H144.583C144.922 41.4353 145.196 41.161 145.196 40.8221V40.0025C145.196 39.6636 145.47 39.3894 145.809 39.3894H146.629C146.968 39.3894 147.242 39.1151 147.242 38.7762V35.9139C147.242 35.575 147.516 35.3007 147.855 35.3007H148.675C149.014 35.3007 149.288 35.0264 149.288 34.6876V33.8679C149.288 33.5291 149.562 33.2548 149.901 33.2548H150.721C151.06 33.2548 151.334 32.9805 151.334 32.6417V31.822C151.334 31.4832 151.608 31.2089 151.947 31.2089H152.767C153.105 31.2089 153.38 31.4832 153.38 31.822V44.9075C153.38 45.2464 153.654 45.5207 153.993 45.5207H156.855C157.194 45.5207 157.468 45.2464 157.468 44.9075V44.0879C157.468 43.749 157.743 43.4747 158.082 43.4747H158.901C159.24 43.4747 159.514 43.2004 159.514 42.8616V42.042C159.514 41.7031 159.789 41.4288 160.127 41.4288H160.947C161.286 41.4288 161.56 41.1545 161.56 40.8157V39.996C161.56 39.6572 161.835 39.3829 162.173 39.3829H162.993C163.332 39.3829 163.606 39.1086 163.606 38.7698V37.9501C163.606 37.6113 163.88 37.337 164.219 37.337H165.039C165.378 37.337 165.652 37.0627 165.652 36.7238V35.9042C165.652 35.5654 165.926 35.2911 166.265 35.2911H167.085C167.424 35.2911 167.698 35.5654 167.698 35.9042V40.8125C167.698 41.1513 167.972 41.4256 168.311 41.4256H169.131C169.47 41.4256 169.744 41.6999 169.744 42.0387V42.8584C169.744 43.1972 170.018 43.4715 170.357 43.4715H171.177C171.516 43.4715 171.79 43.1972 171.79 42.8584V42.0387C171.79 41.6999 172.064 41.4256 172.403 41.4256H173.223C173.561 41.4256 173.836 41.1513 173.836 40.8125V39.9928C173.836 39.654 174.11 39.3797 174.449 39.3797H177.311C177.65 39.3797 177.924 39.1054 177.924 38.7665V37.9469C177.924 37.608 178.199 37.3338 178.538 37.3338H179.357C179.696 37.3338 179.97 37.0595 179.97 36.7206V35.901C179.97 35.5621 180.245 35.2878 180.583 35.2878H181.403C181.742 35.2878 182.016 35.0135 182.016 34.6747V33.855C182.016 33.5162 182.291 33.2419 182.629 33.2419H183.449C183.788 33.2419 184.062 33.5162 184.062 33.855V38.7633C184.062 39.1022 183.788 39.3764 183.449 39.3764H182.629C182.291 39.3764 182.016 39.6507 182.016 39.9896V44.8979C182.016 45.2367 181.742 45.511 181.403 45.511H180.583C180.245 45.511 179.97 45.7853 179.97 46.1241V46.9438C179.97 47.2826 179.696 47.5569 179.357 47.5569H178.538C178.199 47.5569 177.924 47.8312 177.924 48.17V48.9897C177.924 49.3285 177.65 49.6028 177.311 49.6028H176.492C176.153 49.6028 175.878 49.8771 175.878 50.216V51.0356C175.878 51.3745 175.604 51.6488 175.265 51.6488H174.446C174.107 51.6488 173.833 51.923 173.833 52.2619V53.0815C173.833 53.4204 173.558 53.6947 173.219 53.6947H172.4C172.061 53.6947 171.787 53.969 171.787 54.3078V55.1275C171.787 55.4663 171.512 55.7406 171.173 55.7406H168.311C167.972 55.7406 167.698 56.0149 167.698 56.3537V57.1734C167.698 57.5122 167.424 57.7865 167.085 57.7865H166.265C165.926 57.7865 165.652 58.0608 165.652 58.3997V59.2193C165.652 59.5581 165.378 59.8324 165.039 59.8324H162.177C161.838 59.8324 161.563 60.1067 161.563 60.4456V61.2652C161.563 61.6041 161.289 61.8784 160.95 61.8784H160.131C159.792 61.8784 159.518 62.1527 159.518 62.4915V63.3112C159.518 63.65 159.243 63.9243 158.904 63.9243H158.085C157.746 63.9243 157.472 64.1986 157.472 64.5374V65.3571C157.472 65.6959 157.197 65.9702 156.858 65.9702H156.039C155.7 65.9702 155.426 66.2445 155.426 66.5833V67.403C155.426 67.7418 155.7 68.0161 156.039 68.0161H156.858C157.197 68.0161 157.472 68.2904 157.472 68.6293V69.4489C157.472 69.7878 157.746 70.0621 158.085 70.0621H158.904C159.243 70.0621 159.518 70.3363 159.518 70.6752V71.4949C159.518 71.8337 159.792 72.108 160.131 72.108H167.085C167.424 72.108 167.698 71.8337 167.698 71.4949V70.6752C167.698 70.3363 167.972 70.0621 168.311 70.0621H171.173C171.512 70.0621 171.787 69.7878 171.787 69.4489V68.6293C171.787 68.2904 172.061 68.0161 172.4 68.0161H177.308C177.647 68.0161 177.921 67.7418 177.921 67.403V66.5833C177.921 66.2445 178.195 65.9702 178.534 65.9702H179.354C179.693 65.9702 179.967 65.6959 179.967 65.3571V62.4947C179.967 62.1559 180.241 61.8816 180.58 61.8816H181.4C181.739 61.8816 182.013 61.6073 182.013 61.2685V54.3143C182.013 53.9754 182.287 53.7011 182.626 53.7011H183.446C183.785 53.7011 184.059 53.4268 184.059 53.088V48.1797C184.059 47.8409 184.333 47.5666 184.672 47.5666H185.492C185.831 47.5666 186.105 47.2923 186.105 46.9535V46.1338C186.105 45.795 186.379 45.5207 186.718 45.5207H187.538C187.876 45.5207 188.151 45.2464 188.151 44.9075V44.0879C188.151 43.749 188.425 43.4747 188.764 43.4747H189.584C189.922 43.4747 190.197 43.2004 190.197 42.8616V42.042C190.197 41.7031 189.922 41.4288 189.584 41.4288H188.764C188.425 41.4288 188.151 41.1545 188.151 40.8157V35.9074C188.151 35.5686 188.425 35.2943 188.764 35.2943M167.704 66.5769V67.3965C167.704 67.7354 167.43 68.0097 167.091 68.0097H164.229C163.89 68.0097 163.616 67.7354 163.616 67.3965V66.5769C163.616 66.2381 163.89 65.9638 164.229 65.9638H165.049C165.387 65.9638 165.662 65.6895 165.662 65.3506V64.531C165.662 64.1921 165.936 63.9178 166.275 63.9178H167.095C167.433 63.9178 167.708 63.6435 167.708 63.3047V62.485C167.708 62.1462 167.982 61.8719 168.321 61.8719H169.14C169.479 61.8719 169.754 61.5976 169.754 61.2588V60.4391C169.754 60.1003 170.028 59.826 170.367 59.826H171.186C171.525 59.826 171.8 59.5517 171.8 59.2129V58.3932C171.8 58.0544 172.074 57.7801 172.413 57.7801H173.232C173.571 57.7801 173.845 57.5058 173.845 57.1669V56.3473C173.845 56.0084 174.12 55.7341 174.459 55.7341H175.278C175.617 55.7341 175.891 55.4598 175.891 55.121V54.3014C175.891 53.9625 176.166 53.6882 176.505 53.6882H177.324C177.663 53.6882 177.937 53.9625 177.937 54.3014V59.2096C177.937 59.5485 177.663 59.8228 177.324 59.8228H176.505C176.166 59.8228 175.891 60.0971 175.891 60.4359V63.2982C175.891 63.6371 175.617 63.9114 175.278 63.9114H172.416C172.077 63.9114 171.803 64.1857 171.803 64.5245V65.3442C171.803 65.683 171.528 65.9573 171.19 65.9573H168.327C167.988 65.9573 167.714 66.2316 167.714 66.5704" fill="#9203DD"></path><path d="M190.193 39.9928V40.8124C190.193 41.1513 190.468 41.4256 190.806 41.4256H193.669C194.008 41.4256 194.282 41.1513 194.282 40.8124V39.9928C194.282 39.6539 194.008 39.3796 193.669 39.3796H190.806C190.468 39.3796 190.193 39.6539 190.193 39.9928Z" fill="#9203DD"></path><path d="M194.895 39.3797H195.715C196.054 39.3797 196.328 39.1054 196.328 38.7665V37.9469C196.328 37.608 196.054 37.3337 195.715 37.3337H194.895C194.556 37.3337 194.282 37.608 194.282 37.9469V38.7665C194.282 39.1054 194.556 39.3797 194.895 39.3797Z" fill="#9203DD"></path><path d="M196.941 37.3338H197.761C198.1 37.3338 198.374 37.0595 198.374 36.7206V35.901C198.374 35.5621 198.1 35.2878 197.761 35.2878H196.941C196.602 35.2878 196.328 35.5621 196.328 35.901V36.7206C196.328 37.0595 196.602 37.3338 196.941 37.3338Z" fill="#9203DD"></path><path d="M198.371 33.8582V34.6779C198.371 35.0167 198.645 35.291 198.984 35.291H199.803C200.142 35.291 200.417 35.0167 200.417 34.6779V33.8582C200.417 33.5194 200.142 33.2451 199.803 33.2451H198.984C198.645 33.2451 198.371 33.5194 198.371 33.8582Z" fill="#9203DD"></path><path d="M135.563 20.9761H136.383C136.722 20.9761 136.996 20.7018 136.996 20.363V19.5433C136.996 19.2045 137.27 18.9302 137.609 18.9302H138.429C138.768 18.9302 139.042 18.6559 139.042 18.3171V13.4088C139.042 13.07 138.768 12.7957 138.429 12.7957H135.567C135.228 12.7957 134.953 13.07 134.953 13.4088V14.2284C134.953 14.5673 134.679 14.8416 134.34 14.8416H133.521C133.182 14.8416 132.907 15.1159 132.907 15.4547V18.3171C132.907 18.6559 133.182 18.9302 133.521 18.9302H134.34C134.679 18.9302 134.953 19.2045 134.953 19.5433V20.363C134.953 20.7018 135.228 20.9761 135.567 20.9761" fill="#9203DD"></path><path d="M118.593 31.8124V36.7207C118.593 37.0595 118.318 37.3338 117.979 37.3338H117.16C116.821 37.3338 116.547 37.6081 116.547 37.9469V44.8979C116.547 45.2367 116.821 45.511 117.16 45.511H120.022C120.361 45.511 120.635 45.2367 120.635 44.8979V42.0356C120.635 41.6967 120.91 41.4224 121.248 41.4224H122.068C122.407 41.4224 122.681 41.1481 122.681 40.8093V33.8551C122.681 33.5163 122.955 33.242 123.294 33.242H124.114C124.453 33.242 124.727 32.9677 124.727 32.6288V29.7665C124.727 29.4276 124.453 29.1533 124.114 29.1533H123.294C122.955 29.1533 122.681 28.879 122.681 28.5402V27.7206C122.681 27.3817 122.407 27.1074 122.068 27.1074H121.248C120.91 27.1074 120.635 27.3817 120.635 27.7206V28.5402C120.635 28.879 120.361 29.1533 120.022 29.1533H115.114C114.775 29.1533 114.501 29.4276 114.501 29.7665V30.5861C114.501 30.925 114.775 31.1993 115.114 31.1993H117.976C118.315 31.1993 118.589 31.4736 118.589 31.8124" fill="#9203DD"></path><path d="M91.2081 31.1928H90.7724C90.3271 31.1928 89.9689 31.5542 89.9689 31.9963V32.4319C89.9689 32.8773 89.6075 33.2355 89.1654 33.2355H88.7297C88.2844 33.2355 87.9262 33.5969 87.9262 34.039V34.4746C87.9262 34.92 87.5648 35.2782 87.1227 35.2782H86.687C86.2417 35.2782 85.8835 35.6396 85.8835 36.0817V36.5173C85.8835 36.9627 85.5221 37.3209 85.08 37.3209H84.6443C84.199 37.3209 83.8408 37.6823 83.8408 38.1244V38.56C83.8408 39.0054 83.4794 39.3636 83.0373 39.3636H80.5557C80.1104 39.3636 79.7522 39.725 79.7522 40.1671V40.6027C79.7522 41.0481 79.3908 41.4063 78.9487 41.4063H76.4671C76.0218 41.4063 75.6636 41.0448 75.6636 40.6027V34.0325C75.6636 33.5872 76.025 33.229 76.4671 33.229H76.9027C77.3481 33.229 77.7063 32.8676 77.7063 32.4255V27.9012C77.7063 27.4559 78.0677 27.0977 78.5098 27.0977H78.9454C79.3908 27.0977 79.749 26.7363 79.749 26.2942V25.8585C79.749 25.4132 80.1104 25.055 80.5525 25.055H80.9881C81.4335 25.055 81.7917 24.6936 81.7917 24.2515V23.8158C81.7917 23.3705 81.4302 23.0123 80.9881 23.0123H76.4639C76.0185 23.0123 75.6603 23.3737 75.6603 23.8158V24.2515C75.6603 24.6968 75.2989 25.055 74.8568 25.055H74.4212C73.9758 25.055 73.6176 25.4164 73.6176 25.8585V26.2942C73.6176 26.7395 73.2562 27.0977 72.8141 27.0977H72.3785C71.9331 27.0977 71.5749 27.4591 71.5749 27.9012V28.3369C71.5749 28.7822 71.2135 29.1404 70.7714 29.1404H70.3358C69.8905 29.1404 69.5323 29.5018 69.5323 29.9439V30.3796C69.5323 30.8249 69.1708 31.1831 68.7287 31.1831H68.2931C67.8478 31.1831 67.4896 31.5445 67.4896 31.9866V32.4223C67.4896 32.8676 67.1281 33.2258 66.686 33.2258H66.2504C65.8051 33.2258 65.4469 33.5872 65.4469 34.0293V34.465C65.4469 34.9103 65.0854 35.2685 64.6433 35.2685H64.2077C63.7624 35.2685 63.4042 34.9071 63.4042 34.465V31.9834C63.4042 31.5381 63.7656 31.1799 64.2077 31.1799H64.6433C65.0887 31.1799 65.4469 30.8184 65.4469 30.3763V25.8521C65.4469 25.4068 65.0854 25.0486 64.6433 25.0486H64.2077C63.7624 25.0486 63.4042 24.6871 63.4042 24.245V23.8094C63.4042 23.3641 63.0427 23.0059 62.6006 23.0059H62.165C61.7197 23.0059 61.3615 23.3673 61.3615 23.8094V26.291C61.3615 26.7363 61 27.0945 60.5579 27.0945H60.1223C59.677 27.0945 59.3188 27.4559 59.3188 27.898V28.3336C59.3188 28.779 58.9574 29.1372 58.5153 29.1372H58.0796C57.6343 29.1372 57.2761 29.4986 57.2761 29.9407V30.3763C57.2761 30.8217 56.9147 31.1799 56.4726 31.1799H56.0369C55.5916 31.1799 55.2334 31.5413 55.2334 31.9834V32.419C55.2334 32.8644 54.872 33.2226 54.4299 33.2226H53.9942C53.5489 33.2226 53.1907 33.584 53.1907 34.0261V34.4617C53.1907 34.9071 52.8293 35.2653 52.3872 35.2653H51.9515C51.5062 35.2653 51.148 35.6267 51.148 36.0688V36.5109C51.148 36.9562 50.7866 37.3144 50.3445 37.3144H47.8629C47.4176 37.3144 47.0594 36.953 47.0594 36.5109V36.0752C47.0594 35.6299 47.4208 35.2717 47.8629 35.2717H48.2985C48.7439 35.2717 49.1021 34.9103 49.1021 34.4682V31.9866C49.1021 31.5413 49.4635 31.1831 49.9056 31.1831H50.3412C50.7866 31.1831 51.1448 30.8217 51.1448 30.3796V29.9439C51.1448 29.4986 51.5062 29.1404 51.9483 29.1404H52.3839C52.8293 29.1404 53.1875 28.779 53.1875 28.3369V27.9012C53.1875 27.4559 53.5489 27.0977 53.991 27.0977H54.4266C54.872 27.0977 55.2302 26.7363 55.2302 26.2942V25.8585C55.2302 25.4132 54.8687 25.055 54.4266 25.055H53.991C53.5457 25.055 53.1875 24.6936 53.1875 24.2515V23.8158C53.1875 23.3705 52.826 23.0123 52.3839 23.0123H49.9024C49.457 23.0123 49.0988 23.3737 49.0988 23.8158V24.2515C49.0988 24.6968 48.7374 25.055 48.2953 25.055H47.8629C47.4176 25.0518 47.0529 25.41 47.0529 25.8585V28.3336C47.0529 28.779 46.6915 29.1372 46.2494 29.1372H45.8138C45.3684 29.1372 45.0102 29.4986 45.0102 29.9407V32.4223C45.0102 32.8676 44.6488 33.2258 44.2067 33.2258H43.7711C43.3257 33.2258 42.9675 33.5872 42.9675 34.0293V40.5995C42.9675 41.0448 43.329 41.403 43.7711 41.403H44.2067C44.652 41.403 45.0102 41.7645 45.0102 42.2065V42.6422C45.0102 43.0875 45.3717 43.4457 45.8138 43.4457H46.2494C46.6947 43.4457 47.0529 43.0843 47.0529 42.6422V42.2065C47.0529 41.7612 47.4143 41.403 47.8564 41.403H48.2921C48.7374 41.403 49.0956 41.0416 49.0956 40.5995V40.1639C49.0956 39.7185 49.457 39.3603 49.8991 39.3603H52.3807C52.826 39.3603 53.1842 38.9989 53.1842 38.5568V38.1212C53.1842 37.6758 53.5457 37.3176 53.9878 37.3176H54.4234C54.8687 37.3176 55.2269 36.9562 55.2269 36.5141V36.0785C55.2269 35.6331 55.5884 35.2749 56.0305 35.2749H56.4661C56.9114 35.2749 57.2696 34.9135 57.2696 34.4714V34.0358C57.2696 33.5904 57.6311 33.2322 58.0732 33.2322H58.5088C58.9541 33.2322 59.3123 33.5937 59.3123 34.0358V38.56C59.3123 39.0054 59.6737 39.3636 60.1158 39.3636H60.5515C60.9968 39.3636 61.355 39.725 61.355 40.1671V40.6027C61.355 41.0481 61.7164 41.4063 62.1585 41.4063H64.6401C65.0854 41.4063 65.4436 41.0448 65.4436 40.6027V40.1671C65.4436 39.7218 65.8051 39.3636 66.2472 39.3636H66.6828C67.1281 39.3636 67.4863 39.0021 67.4863 38.56V36.0785C67.4863 35.6331 67.8478 35.2749 68.2899 35.2749H68.7255C69.1708 35.2749 69.529 34.9135 69.529 34.4714V34.0358C69.529 33.5904 69.8904 33.2322 70.3326 33.2322H70.7682C71.2135 33.2322 71.5717 33.5937 71.5717 34.0358V40.606C71.5717 41.0513 71.9331 41.4095 72.3752 41.4095H72.8109C73.2562 41.4095 73.6144 41.7709 73.6144 42.213V42.6487C73.6144 43.094 73.9758 43.4522 74.4179 43.4522H74.8536C75.2989 43.4522 75.6571 43.8136 75.6571 44.2557V44.6913C75.6571 45.1367 76.0185 45.4949 76.4606 45.4949H78.9422C79.3875 45.4949 79.7457 45.1334 79.7457 44.6913V44.2557C79.7457 43.8104 80.1072 43.4522 80.5493 43.4522H83.0308C83.4761 43.4522 83.8344 43.0908 83.8344 42.6487V42.213C83.8344 41.7677 84.1958 41.4095 84.6379 41.4095H85.0735C85.5188 41.4095 85.877 41.0481 85.877 40.606V40.1703C85.877 39.725 86.2385 39.3668 86.6806 39.3668H87.1162C87.5615 39.3668 87.9197 39.0054 87.9197 38.5633V38.1276C87.9197 37.6823 88.2812 37.3241 88.7233 37.3241H89.0201C89.4655 37.3241 89.8237 36.9627 89.8237 36.5206V36.0849C89.8237 35.6396 90.1851 35.2814 90.6272 35.2814H91.2048C91.6502 35.2814 92.0084 34.92 92.0084 34.4779V34.0422C92.0084 33.5969 92.3666 33.2387 92.8119 33.2387H93.2475C93.6929 33.2387 94.0511 32.8773 94.0511 32.4352V29.9536C94.0511 29.5083 93.6896 29.1501 93.2475 29.1501H92.8119C92.3666 29.1501 92.0084 29.5115 92.0084 29.9536V30.3893C92.0084 30.8346 91.6469 31.1928 91.2048 31.1928" fill="#9203DD"></path><path d="M94.6707 29.1568H95.4904C95.8292 29.1568 96.1035 28.8825 96.1035 28.5436V27.724C96.1035 27.3851 95.8292 27.1108 95.4904 27.1108H94.6707C94.3319 27.1108 94.0576 27.3851 94.0576 27.724V28.5436C94.0576 28.8825 94.3319 29.1568 94.6707 29.1568Z" fill="#9203DD"></path><path d="M96.7135 27.1106H97.5331C97.872 27.1106 98.1463 26.8363 98.1463 26.4975V25.6778C98.1463 25.339 97.872 25.0647 97.5331 25.0647H96.7135C96.3746 25.0647 96.1003 25.339 96.1003 25.6778V26.4975C96.1003 26.8363 96.3746 27.1106 96.7135 27.1106Z" fill="#9203DD"></path><path d="M100.805 23.022H101.625C101.964 23.022 102.238 22.7477 102.238 22.4089V21.5892C102.238 21.2504 101.964 20.9761 101.625 20.9761H100.805C100.466 20.9761 100.192 21.2504 100.192 21.5892V22.4089C100.192 22.7477 100.466 23.022 100.805 23.022Z" fill="#9203DD"></path><path d="M98.7594 25.0647H99.579C99.9179 25.0647 100.192 24.7904 100.192 24.4516V23.6319C100.192 23.2931 99.9179 23.0188 99.579 23.0188H98.7594C98.4205 23.0188 98.1462 23.2931 98.1462 23.6319V24.4516C98.1462 24.7904 98.4205 25.0647 98.7594 25.0647Z" fill="#9203DD"></path><path d="M106.94 25.0647H107.76C108.098 25.0647 108.373 24.7904 108.373 24.4516V19.5433C108.373 19.2045 108.098 18.9302 107.76 18.9302H106.94C106.601 18.9302 106.327 18.6559 106.327 18.3171V17.4974C106.327 17.1586 106.052 16.8843 105.714 16.8843H104.894C104.555 16.8843 104.281 17.1586 104.281 17.4974V18.3171C104.281 18.6559 104.007 18.9302 103.668 18.9302H102.848C102.509 18.9302 102.235 19.2045 102.235 19.5433V20.363C102.235 20.7018 102.509 20.9761 102.848 20.9761H103.668C104.007 20.9761 104.281 21.2504 104.281 21.5893V24.4516C104.281 24.7904 104.007 25.0647 103.668 25.0647H102.848C102.509 25.0647 102.235 25.339 102.235 25.6779V30.5861C102.235 30.925 101.961 31.1993 101.622 31.1993H100.802C100.463 31.1993 100.189 31.4736 100.189 31.8124V34.6748C100.189 35.0136 99.9147 35.2879 99.5759 35.2879H98.7562C98.4174 35.2879 98.1431 35.5622 98.1431 35.901V40.8093C98.1431 41.1481 97.8688 41.4224 97.53 41.4224H96.7103C96.3715 41.4224 96.0972 41.6967 96.0972 42.0356V44.8979C96.0972 45.2368 96.3715 45.5111 96.7103 45.5111H97.53C97.8688 45.5111 98.1431 45.7854 98.1431 46.1242V46.9438C98.1431 47.2827 98.4174 47.557 98.7562 47.557H99.5759C99.9147 47.557 100.189 47.2827 100.189 46.9438V46.1242C100.189 45.7854 100.463 45.5111 100.802 45.5111H101.622C101.961 45.5111 102.235 45.2368 102.235 44.8979V42.0356C102.235 41.6967 102.509 41.4224 102.848 41.4224H103.668C104.007 41.4224 104.281 41.1481 104.281 40.8093V37.947C104.281 37.6081 104.555 37.3338 104.894 37.3338H105.714C106.052 37.3338 106.327 37.0595 106.327 36.7207V35.901C106.327 35.5622 106.601 35.2879 106.94 35.2879H107.76C108.098 35.2879 108.373 35.0136 108.373 34.6748V33.8551C108.373 33.5163 108.647 33.242 108.986 33.242H113.894C114.233 33.242 114.507 32.9677 114.507 32.6288V31.8092C114.507 31.4703 114.233 31.1961 113.894 31.1961H108.986C108.647 31.1961 108.373 30.9218 108.373 30.5829V29.7633C108.373 29.4244 108.098 29.1501 107.76 29.1501H106.94C106.601 29.1501 106.327 28.8758 106.327 28.537V25.6746C106.327 25.3358 106.601 25.0615 106.94 25.0615" fill="#9203DD"></path><path d="M182.013 28.5436V27.724C182.013 27.3851 181.739 27.1108 181.4 27.1108H180.58C180.241 27.1108 179.967 27.3851 179.967 27.724V28.5436C179.967 28.8825 180.241 29.1568 180.58 29.1568H181.4C181.739 29.1568 182.013 28.8825 182.013 28.5436Z" fill="#9203DD"></path><path d="M132.907 23.022H131.475C131.136 23.022 130.862 23.2963 130.862 23.6351V24.9517L130.852 24.9291H129.419C129.08 24.9291 128.806 25.2034 128.806 25.5423V26.3619C128.806 26.7008 129.08 26.9751 129.419 26.9751H130.862V30.5893C130.862 30.9281 130.587 31.2024 130.248 31.2024H129.429C129.09 31.2024 128.816 31.4767 128.816 31.8156V36.7238C128.816 37.0627 128.541 37.337 128.202 37.337H127.373C127.034 37.337 126.76 37.6113 126.76 37.9501V42.8584C126.76 43.1972 127.034 43.4715 127.373 43.4715H128.193C128.532 43.4715 128.806 43.7458 128.806 44.0847V44.9043C128.806 45.2431 129.08 45.5174 129.419 45.5174H130.239C130.578 45.5174 130.852 45.2431 130.852 44.9043L130.858 42.0387C130.858 41.6999 131.133 41.4256 131.471 41.4256H132.291C132.63 41.4256 132.904 41.1513 132.904 40.8125V35.9042C132.904 35.5654 133.179 35.2911 133.517 35.2911H134.337C134.676 35.2911 134.95 35.0168 134.95 34.6779V23.6351C134.95 23.2963 134.676 23.022 134.337 23.022H132.904H132.907Z" fill="#9203DD"></path><path d="M66.0277 57.7835H66.8473C67.1862 57.7835 67.4605 57.5092 67.4605 57.1703V56.3507C67.4605 56.0118 67.1862 55.7375 66.8473 55.7375H66.0277C65.6888 55.7375 65.4146 56.0118 65.4146 56.3507V57.1703C65.4146 57.5092 65.6888 57.7835 66.0277 57.7835Z" fill="#9203DD"></path><path d="M51.7127 55.7375C51.3739 55.7375 51.0996 56.0118 51.0996 56.3507V65.3476C51.0996 65.6864 51.3739 65.9607 51.7127 65.9607H54.5751C54.9139 65.9607 55.1882 65.6864 55.1882 65.3476V56.3507C55.1882 56.0118 54.9139 55.7375 54.5751 55.7375H51.7127Z" fill="#9203DD"></path><path d="M66.0277 65.9605H66.8473C67.1862 65.9605 67.4605 65.6862 67.4605 65.3473V64.5277C67.4605 64.1888 67.1862 63.9146 66.8473 63.9146H66.0277C65.6888 63.9146 65.4146 64.1888 65.4146 64.5277V65.3473C65.4146 65.6862 65.6888 65.9605 66.0277 65.9605Z" fill="#9203DD"></path><path d="M55.8014 53.6917H64.8015C65.1403 53.6917 65.4146 53.9659 65.4146 54.3048V55.1244C65.4146 55.4633 65.1403 55.7376 64.8015 55.7376H55.8014C55.4625 55.7376 55.1882 55.4633 55.1882 55.1244V54.3048C55.1882 53.9659 55.4625 53.6917 55.8014 53.6917Z" fill="#9203DD"></path><path d="M64.8015 65.9607H55.8014C55.4627 65.9607 55.1882 66.2352 55.1882 66.5738V67.3935C55.1882 67.7321 55.4627 68.0066 55.8014 68.0066H64.8015C65.1401 68.0066 65.4146 67.7321 65.4146 67.3935V66.5738C65.4146 66.2352 65.1401 65.9607 64.8015 65.9607Z" fill="#9203DD"></path><path d="M103.652 53.6917H100.789C100.451 53.6917 100.176 53.9662 100.176 54.3048V63.3017C100.176 63.6403 100.451 63.9148 100.789 63.9148H103.652C103.99 63.9148 104.265 63.6403 104.265 63.3017V54.3048C104.265 53.9662 103.99 53.6917 103.652 53.6917Z" fill="#9203DD"></path><path d="M104.265 64.5277V65.3473C104.265 65.6862 104.539 65.9605 104.878 65.9605H105.697C106.036 65.9605 106.311 65.6862 106.311 65.3473V64.5277C106.311 64.1888 106.036 63.9146 105.697 63.9146H104.878C104.539 63.9146 104.265 64.1888 104.265 64.5277Z" fill="#9203DD"></path><path d="M113.875 65.9607H106.921C106.582 65.9607 106.307 66.235 106.307 66.5738V67.3935C106.307 67.7323 106.582 68.0066 106.921 68.0066H117.979C118.318 68.0066 118.593 67.7323 118.593 67.3935V54.308C118.593 53.9691 118.318 53.6948 117.979 53.6948H115.101C114.762 53.6948 114.488 53.9691 114.488 54.308V65.3508C114.488 65.6896 114.214 65.9639 113.875 65.9639" fill="#9203DD"></path><path d="M82.3856 65.9607C82.0468 65.9607 81.7725 65.6864 81.7725 65.3476V54.3048C81.7725 53.9659 81.4982 53.6917 81.1593 53.6917H78.297C77.9581 53.6917 77.6838 53.9659 77.6838 54.3048V65.3476C77.6838 65.6864 77.9581 65.9607 78.297 65.9607H79.1166C79.4555 65.9607 79.7298 66.235 79.7298 66.5739V67.3935C79.7298 67.7324 80.0041 68.0067 80.3429 68.0067H93.4284C93.7672 68.0067 94.0415 67.7324 94.0415 67.3935V66.5739C94.0415 66.235 93.7672 65.9607 93.4284 65.9607H82.3856Z" fill="#9203DD"></path><path d="M141.717 55.7376C141.378 55.7376 141.104 56.0119 141.104 56.3507V59.2131C141.104 59.5519 140.83 59.8262 140.491 59.8262H133.54C133.201 59.8262 132.927 59.5519 132.927 59.2131V56.3507C132.927 56.0119 133.201 55.7376 133.54 55.7376H140.491C140.83 55.7376 141.104 55.4633 141.104 55.1244V54.3048C141.104 53.9659 140.83 53.6917 140.491 53.6917H129.448C129.109 53.6917 128.835 53.9659 128.835 54.3048V67.3903C128.835 67.7291 129.109 68.0034 129.448 68.0034H142.534C142.872 68.0034 143.147 67.7291 143.147 67.3903V66.5706C143.147 66.2318 143.421 65.9575 143.76 65.9575H144.58C144.918 65.9575 145.193 65.6832 145.193 65.3444V62.482C145.193 62.1432 144.918 61.8689 144.58 61.8689H143.76C143.421 61.8689 143.147 61.5946 143.147 61.2558V60.4361C143.147 60.0973 143.421 59.823 143.76 59.823H144.58C144.918 59.823 145.193 59.5487 145.193 59.2098V56.3475C145.193 56.0086 144.918 55.7343 144.58 55.7343H141.717V55.7376ZM140.481 65.9607H133.537C133.198 65.9607 132.924 65.6864 132.924 65.3476V62.4852C132.924 62.1464 133.198 61.8721 133.537 61.8721H140.481C140.82 61.8721 141.094 62.1464 141.094 62.4852V65.3476C141.094 65.6864 140.82 65.9607 140.481 65.9607Z" fill="#9203DD"></path><path d="M108.369 1.33331V1.76896C108.369 2.21428 108.008 2.57248 107.566 2.57248H107.13C106.685 2.57248 106.327 2.93391 106.327 3.37601V3.81165C106.327 4.25698 105.965 4.61518 105.523 4.61518H105.088C104.642 4.61518 104.284 4.25375 104.284 3.81165V3.37601C104.284 2.93068 103.926 2.57248 103.48 2.57248H103.045C102.6 2.57248 102.241 2.21106 102.241 1.76896V1.33331C102.241 0.887983 101.88 0.529785 101.438 0.529785H101.002C100.557 0.529785 100.199 0.887983 100.199 1.33331V1.76896C100.199 2.21428 99.8372 2.57248 99.3951 2.57248H98.9594C98.5141 2.57248 98.1559 2.93391 98.1559 3.37601V3.81165C98.1559 4.25698 97.7945 4.61518 97.3524 4.61518H96.9167C96.4714 4.61518 96.1132 4.25375 96.1132 3.81165V3.37601C96.1132 2.93068 95.7518 2.57248 95.3097 2.57248H94.8741C94.4287 2.57248 94.0705 2.21106 94.0705 1.76896V1.33331C94.0705 0.887983 93.7091 0.529785 93.267 0.529785H92.8314C92.386 0.529785 92.0278 0.887983 92.0278 1.33331V7.9035C92.0278 8.34882 92.3893 8.70702 92.8314 8.70702H109.625C110.07 8.70702 110.428 8.3456 110.428 7.9035V1.33331C110.428 0.887983 110.067 0.529785 109.625 0.529785H109.189C108.744 0.529785 108.386 0.887983 108.386 1.33331" fill="#9203DD"></path><path d="M56.1531 27.8721C56.1531 27.8721 55.2076 28.3917 55.2076 27.9173C55.2076 27.4429 54.8882 27.1138 54.4041 27.1138C53.9201 27.1138 54.8107 26.3038 54.8107 26.3038C54.8107 26.3038 55.2076 25.9004 55.2076 26.307C55.2076 26.7136 55.3367 27.1106 56.0112 27.1106C56.6856 27.1106 56.1531 27.8689 56.1531 27.8689" fill="#9203DD"></path><path d="M180.912 27.8721C180.912 27.8721 179.967 28.3917 179.967 27.9173C179.967 27.4429 179.647 27.1138 179.163 27.1138C178.679 27.1138 179.57 26.3038 179.57 26.3038C179.57 26.3038 179.967 25.9004 179.967 26.307C179.967 26.7136 180.096 27.1106 180.77 27.1106C181.445 27.1106 180.912 27.8689 180.912 27.8689" fill="#9203DD"></path><path d="M82.7371 25.8167C82.7371 25.8167 81.7916 26.3363 81.7916 25.8619C81.7916 25.3875 81.4721 25.0584 80.9881 25.0584C80.504 25.0584 81.3947 24.2484 81.3947 24.2484C81.3947 24.2484 81.7916 23.845 81.7916 24.2516C81.7916 24.6582 81.9207 25.0551 82.5951 25.0551C83.2696 25.0551 82.7371 25.8135 82.7371 25.8135" fill="#9203DD"></path><path d="M115.256 30.2408C115.256 30.2408 115.785 31.1993 115.314 31.1993C114.843 31.1993 114.497 31.5058 114.497 31.9899C114.497 32.4739 113.687 31.5833 113.687 31.5833C113.687 31.5833 113.284 31.1864 113.691 31.1864C114.097 31.1864 114.494 31.0573 114.494 30.3828C114.494 29.7084 115.252 30.2408 115.252 30.2408" fill="#9203DD"></path></g><defs><clipPath id="clip0_88_938"><rect width="200.417" height="71.5653" fill="white" transform="translate(0 0.529785)"></rect></clipPath></defs></svg>