<?xml version="1.0" encoding="utf-8"?>
<!-- Generator: Adobe Illustrator 23.0.6, SVG Export Plug-In . SVG Version: 6.00 Build 0)  -->
<svg version="1.1" id="Layer_1" xmlns="http://www.w3.org/2000/svg" xmlns:xlink="http://www.w3.org/1999/xlink" x="0px" y="0px"
	 viewBox="0 0 100 45" style="enable-background:new 0 0 100 45;" xml:space="preserve">
<style type="text/css">
	.st0{fill:#3F4243;}
	.st1{fill:#E22F05;}
</style>
<path class="st0" d="M2.8,42.4v-8.7H0v10.9h9.5v-2.2H2.8z"/>
<path class="st0" d="M43,33.6h-2.8v11H43V33.6z"/>
<path class="st0" d="M63.1,41l1.7-3l1.7,3H63.1z M64.8,33.6l-6.9,11h3.2l0.8-1.4h5.7l0.8,1.4h3.3L64.8,33.6z"/>
<path class="st0" d="M75.7,42.4v-8.7H73v10.9h9.5v-2.2H75.7z"/>
<path class="st0" d="M17.2,42.5c-2.4,0-4.1-1.5-4.1-3.3c0-1.9,1.8-3.3,4.1-3.3c2.4,0,4.1,1.5,4.1,3.3C21.3,41,19.5,42.5,17.2,42.5z
	 M17.2,33.6c-3.9,0-6.9,2.4-6.9,5.5c0,3.2,3.1,5.6,6.9,5.6s6.9-2.4,6.9-5.6C24.1,36,21,33.6,17.2,33.6z"/>
<path class="st0" d="M38.1,38.4h-5.9v2.2h3.3v1.2c-0.7,0.4-1.9,0.8-3.3,0.8c-2.4,0-4.1-1.5-4.1-3.3c0-1.9,1.8-3.3,4.1-3.3
	c1.6,0,2.9,0.4,4.4,1.6l1.4-1.7c-1.3-1.2-3.3-2.1-5.7-2.1c-3.9,0-6.9,2.4-6.9,5.6c0,3.2,3,5.6,6.9,5.6c2.4,0,4.5-0.9,5.8-2
	L38.1,38.4L38.1,38.4z"/>
<path class="st0" d="M51.5,42.5c-2.4,0-4.1-1.5-4.1-3.3c0-1.9,1.8-3.3,4.1-3.3c1.6,0,2.9,0.4,4.4,1.6l1.4-1.7
	c-1.3-1.2-3.3-2.1-5.7-2.1c-3.9,0-6.9,2.4-6.9,5.6c0,3.2,3,5.6,6.9,5.6c2.5,0,4.4-0.9,5.7-2.1L55.9,41
	C54.4,42.1,53.1,42.5,51.5,42.5z"/>
<path class="st0" d="M86.8,33.6H84v11h2.8V33.6z"/>
<path class="st0" d="M100,35.5c-0.3-0.3-2.3-1.9-5.9-1.9s-5.8,1.6-5.8,3.4c0,2.2,2.4,2.9,4.4,3.1c0.7,0.1,1.6,0.1,2.5,0.3
	c1.2,0.1,1.9,0.3,1.9,1c0,0.8-1.5,1.1-3.1,1.1c-2.2,0-3.6-0.7-4.6-1.5l-1.5,1.8c1.1,0.8,2.8,1.9,6.2,1.9c4.3,0,5.9-2,5.9-3.6
	c0-1.8-1.3-2.9-4.4-3.2l-1.9-0.2c-1.6-0.1-2.5-0.4-2.5-0.9s0.9-1,3-1c2.6,0,3.8,0.9,4.5,1.3L100,35.5z"/>
<path class="st1" d="M73.4,9c0-3.7-3-8-11.3-8c-3.7,0-8.3,1.4-11.3,2.8C46.2,6,42,8.7,36.5,8.7c-6.1,0-7.7-2.2-7.7-3.9
	c0-2.4,2.7-3.6,4.8-3.6c1.3,0,2.8,0.3,4.5,1.4c2.1,1.4,3.5,2.4,4.9,2.4c1.3,0,2-0.4,2.4-1.9C44.3,2.3,40.3,0,35,0
	c-7.2,0-8.5,4.4-8.5,6.9c0,1,0.3,2.2,0.9,3.2c-0.5,0.7-0.9,1.8-0.9,3.2c0,3.7,3,8.1,11.2,8.2c3.7,0,8.3-1.5,11.3-2.9
	c4.6-2.2,8.8-4.9,14.3-4.9c6.1,0,7.7,2.2,7.7,4c0,2.5-2.7,3.7-4.8,3.7c-1.3,0-2.8-0.3-4.5-1.5c-2.1-1.4-3.5-2.4-4.9-2.4
	c-1.3,0-2,0.4-2.4,1.9c1.1,0.8,5.1,3.1,10.3,3.1c7.2,0,8.5-4.5,8.5-7c0-1-0.3-2.2-0.9-3.3C73,11.4,73.4,10.4,73.4,9z M63.2,7.9
	c-5.9-0.1-10,2.7-15,4.9c-3.8,1.6-7,3-11,3c-6.3,0-9.1-2.5-9.1-4.8c0,0,0-0.1,0-0.1c1.5,1.8,4.2,3.2,8.7,3.2
	c5.9,0.1,10-2.7,15.1-4.8c3.8-1.6,7-3,11-3c6.4,0,9.1,2.4,9.1,4.7c0,0,0,0.1,0,0.1C70.4,9.4,67.6,8,63.2,7.9z"/>
</svg>
