<svg xmlns="http://www.w3.org/2000/svg" viewBox="0 0 250 140" width="250" height="140">
	<path data-name="n" d="M49.9,134.2H34.3V51.9c0-1.9-0.7-3.5-1.9-4.7c-1.6-1.6-3.8-2.2-6.4-1.8c-2.4,0.4-4.6,1.9-6.7,4.7v84.2H3.8V30.7h15.6v5.6c3.5-4.3,8-6.5,13.5-6.5c4,0,7.3,0.9,9.9,2.7c2.6,1.8,4.5,3.8,5.6,6.1s1.6,6.1,1.6,11.5L49.9,134.2L49.9,134.2z"/>
	<path data-name="i" d="M76.7,20.2H61.1V4.8h15.6V20.2z M76.7,134.2H61.1V30.7h15.6V134.2z"/>
	<path data-name="c" d="M132.6,112c0,6.4-2.2,11.9-6.7,16.4c-4.5,4.5-9.9,6.8-16.3,6.8c-6.4,0-11.9-2.3-16.6-6.8c-4.7-4.5-7-10-7-16.3V53.3c0-6.4,2.3-11.8,6.8-16.4s10-6.8,16.5-6.8s11.9,2.3,16.4,6.8c4.5,4.5,6.8,10,6.8,16.3v36.6h-15.6v-37c0-2-0.8-3.8-2.3-5.3c-1.5-1.5-3.3-2.3-5.3-2.3c-2.2,0-4,0.8-5.5,2.3c-1.5,1.5-2.3,3.3-2.3,5.3v59.4c0,2.1,0.8,3.8,2.3,5.3c1.5,1.5,3.3,2.3,5.5,2.3c2.1,0,3.8-0.8,5.3-2.3s2.3-3.3,2.3-5.3v-5.8h15.6L132.6,112L132.6,112z"/>
	<path data-name="b" fill="#97bf0e" d="M201.6,32.8c-2.8-2-5.9-2.8-9.8-2.8c-5.6,0-10.1,2.2-13.5,6.5V4.7h-15.7v90.3c0,2.5-1.1,5-3.9,5.6c-8.4,1.4-14.9,8.4-14.9,17.4c0,9.5,7.9,17.4,17.4,17.4c4.2,0,8.4-1.7,11.2-4.2l0.3-0.3c0.6-0.3,0.8-0.8,1.1-1.1c0.6-0.6,1.4-0.8,2.2-0.8c1.1,0,2,0.3,2.8,0.8c3.4,3.9,7.9,5.9,13.2,5.9h0.6c3.6,0,7-0.8,9.5-2.8c2.5-1.7,4.5-3.9,5.6-6.2c0.8-2.2,1.4-5.6,1.4-10.7V50.5c0-5.3-0.6-9.3-1.7-11.5C206.1,36.7,204.4,34.7,201.6,32.8 M193.2,108v5.9c0,2-0.6,3.6-2,4.8c-1.7,1.7-3.6,2.2-6.2,2c-2.2-0.3-4.8-2-6.7-5V50.5c2-2.8,4.2-4.5,6.7-4.8c2.5-0.3,4.8,0.3,6.2,2c1.4,1.1,2,2.8,2,4.8V108z"/>
	<path data-name="r" fill="#97bf0e" d="M232.7,36.4v-5.6H217v104.1h15.7V50.2c2.2-2.8,4.5-4.5,7-4.8c2.5-0.3,4.8,0.3,6.7,2V30C240.8,29.7,236.1,31.9,232.7,36.4"/>
	<circle data-name="Yellow dot" fill="#faed00" cx="161.2" cy="118.1" r="9"/>
</svg>